# xmcd
# 
# Track frame offsets:
#     150
#     19022
#     30787
#     53040
#     70612
#     93040
#     111330
#     131962
#     151575
#     168757
# 
# Disc length: 2502
# 
# Revision: 7
# Processed by: cddbd v1.5.2PL0 Copyright (c) Steve Scherf et al.
# Submitted via: fre:ac v1.0.31
# 
DISCID=6909c40a
DTITLE=佐野元春 - BACK TO THE STREET
DYEAR=1980
DGENRE=Rock
TTITLE0=夜のスウィンガー
TTITLE1=ビートでジャンプ
TTITLE2=情けない週末
TTITLE3=Please Don't Tell Me A Lie
TTITLE4=グッドタイムス＆バッドタイムス
TTITLE5=アンジェリーナ
TTITLE6=さよならベイブ
TTITLE7=バッド・ガール
TTITLE8=Back To The Street
TTITLE9=Do What You Like（勝手にしなよ）
EXTD=YEAR: 1980
EXTT0=
EXTT1=
EXTT2=
EXTT3=
EXTT4=
EXTT5=
EXTT6=
EXTT7=
EXTT8=
EXTT9=
PLAYORDER=
